<?xml version="1.0" encoding="utf-8"?>
<svg version="1.1" id="Capa_1" xmlns="http://www.w3.org/2000/svg" xmlns:xlink="http://www.w3.org/1999/xlink" x="0px" y="0px"
	 viewBox="0 0 921 921" style="enable-background:new 0 0 921 921;" xml:space="preserve">
<style type="text/css">
	.st0{fill:#fff;}
</style>
<path class="st0" d="M814.7,386.2C619.1,386.2,460.5,529,460.5,705v177.1c0,19.6,15.9,35.4,35.4,35.4h0c19.6,0,35.4-15.9,35.4-35.4
	v-95.6c0-38.9,15.5-76.3,43-103.8l82.4-82.4c13.8-13.8,37.1-14.5,51.7-1.6l0,0c16.7,11.2,33.4,42.5,12.5,62.2l-81.3,87.2
	c-22.1,22.1-34.6,52.1-34.6,83.4l0,0c0,22.4,13.3,54.9,47.1,48.1C810.3,847.7,921,629.9,921,478v-35c0-19.6-4.4-56.8-24-56.8H814.7z
	 M645.2,205.4C593.1,217.8,536.6,224.8,478,226V18.5c22.8,3.5,45.1,13.9,66.6,31c27.2,21.7,51.7,53.1,73,93.3
	C627.9,162.3,637.1,183.2,645.2,205.4z M478,521.1V478h32.4C498.5,491.6,487.6,505.9,478,521.1z M546,443h-68V261
	c62.4-1.2,122.7-8.8,178.3-22.3c12,40.2,20.7,83.8,25.7,129.4C630.7,384.2,584.5,410,546,443z M794.5,187.7
	c9.1-4.8,17.7-9.8,26-14.9c43.2,54,74.6,118,90,187.9c-6.9-7.2-16.6-11.7-27.4-11.7h-75.8c-31.4,0-61.9,3.4-91.1,9.9
	c-5.3-45.4-14.1-88.9-26.2-129.3C727.8,218.4,763,204.4,794.5,187.7z M443,478v117.6c-6.7,20.9-11.2,42.5-13.3,64.8
	c-57.7,2-113.3,9.5-165,21.9c-18.5-61.8-29-131.5-30.5-204.3H443z M443,443H234.2c1.4-72.8,12-142.5,30.5-204.3
	c55.6,13.5,115.9,21.1,178.3,22.3V443z M566.4,22.2c-6.9-5.5-13.8-10.4-20.8-14.7c98.5,18.4,186,68.1,251.7,138.4
	c-6.1,3.7-12.5,7.3-19.1,10.8c-29.9,15.7-63.2,29-99.1,39.6c-8.9-24.8-19.1-48.2-30.6-69.9C625,82,597.3,46.9,566.4,22.2z
	 M126.4,733.3c-9,4.8-17.7,9.8-25.9,14.9C40.8,673.6,3.8,580.1,0,478h199.1c1.5,75.8,12.4,148.5,31.8,213.4
	C193.1,702.6,157.9,716.6,126.4,733.3z M354.6,898.8c6.9,5.5,13.8,10.4,20.8,14.7c-98.5-18.4-186-68.1-251.7-138.4
	c6.1-3.7,12.5-7.3,19.1-10.8c29.9-15.7,63.2-29,99.1-39.6c8.9,24.8,19.1,48.2,30.6,69.9C296,839,323.7,874.1,354.6,898.8z
	 M434.7,900.9c-19.9-4.5-39.5-14.4-58.3-29.4c-27.1-21.7-51.7-53.1-73-93.3c-10.3-19.5-19.5-40.4-27.6-62.6
	c47.7-11.4,99.1-18.2,152.4-20.2v184.2C428.2,887.5,430.6,894.9,434.7,900.9z M142.8,156.7c-6.6-3.5-13-7.1-19.1-10.8
	c65.7-70.3,153.2-120,251.7-138.4c-7.1,4.4-14,9.2-20.8,14.7c-30.9,24.7-58.6,59.7-82.1,104.2c-11.5,21.7-21.7,45.1-30.6,69.9
	C205.9,185.8,172.6,172.5,142.8,156.7z M376.4,49.5c21.5-17.1,43.8-27.5,66.6-31V226c-58.6-1.2-115.1-8.2-167.2-20.6
	c8.1-22.2,17.3-43.2,27.6-62.6C324.7,102.6,349.2,71.2,376.4,49.5z M199.2,443H0c3.8-102.1,40.8-195.6,100.5-270.2
	c8.3,5.2,17,10.1,26,14.9c31.5,16.7,66.7,30.7,104.5,41.9C211.6,294.5,200.7,367.2,199.2,443z"/>
</svg>
