<?xml version="1.0" encoding="utf-8"?>
<!-- Generator: Adobe Illustrator 22.0.1, SVG Export Plug-In . SVG Version: 6.00 Build 0)  -->
<svg version="1.1" id="Layer_1" xmlns="http://www.w3.org/2000/svg" xmlns:xlink="http://www.w3.org/1999/xlink" x="0px" y="0px"
	 viewBox="0 0 2000 2000" style="enable-background:new 0 0 2000 2000;" xml:space="preserve">
<style type="text/css">
	.st0{display:none;fill:#231F20;stroke:#231F20;stroke-width:40;stroke-linecap:round;stroke-miterlimit:10;}
	.st1{fill:#FFFFFF;}
	.st2{fill:none;stroke:#FFFFFF;stroke-width:40;stroke-linecap:round;stroke-miterlimit:10;}
</style>
<rect class="st0" width="2000" height="2000"/>
<g>
	<path class="st1" d="M1000,206.4467926c107.1553955,0,211.0739746,20.9732056,308.8685303,62.3367767
		c47.0083008,19.8828735,92.3525391,44.4953613,134.7729492,73.1539307
		c42.0328369,28.3967896,81.5606689,61.0107117,117.4853516,96.9356995
		c35.9249268,35.9246521,68.5389404,75.4525452,96.9356689,117.4853821
		c28.6585693,42.4203491,53.2711182,87.7646484,73.1539307,134.7728271
		c41.3635254,97.7946777,62.336792,201.7132568,62.336792,308.8685913s-20.9732666,211.0739746-62.336792,308.8685303
		c-19.8828125,47.0083008-44.4953613,92.3525391-73.1539307,134.7729492
		c-28.3967285,42.0328369-61.0107422,81.5606689-96.9356689,117.4853516
		c-35.9246826,35.9249268-75.4525146,68.5389404-117.4853516,96.9356689
		c-42.4204102,28.6585693-87.7646484,53.2711182-134.7729492,73.1539307
		c-97.7945557,41.3635254-201.7131348,62.336792-308.8685303,62.336792s-211.0739136-20.9732666-308.8685913-62.336792
		c-47.0081787-19.8828125-92.352478-44.4953613-134.7728271-73.1539307
		c-42.0328369-28.3967285-81.56073-61.0107422-117.4853821-96.9356689
		c-35.9249878-35.9246826-68.5389099-75.4525146-96.9356995-117.4853516
		c-28.6585693-42.4204102-53.2710571-87.7646484-73.1539307-134.7729492
		C227.4199982,1211.0739746,206.4467926,1107.1553955,206.4467926,1000s20.9732056-211.0739136,62.3367767-308.8685913
		c19.8828735-47.0081787,44.4953613-92.352478,73.1539307-134.7728271
		c28.3967896-42.0328369,61.0107117-81.56073,96.9356995-117.4853821
		c35.9246521-35.9249878,75.4525452-68.5389099,117.4853821-96.9356995
		c42.4203491-28.6585693,87.7646484-53.2710571,134.7728271-73.1539307
		C788.9260864,227.4199982,892.8446655,206.4467926,1000,206.4467926 M1000,146.4467926
		c-471.4046631,0-853.5532227,382.1485596-853.5532227,853.5532227S528.5953369,1853.5532227,1000,1853.5532227
		S1853.5532227,1471.4046631,1853.5532227,1000S1471.4046631,146.4467926,1000,146.4467926L1000,146.4467926z"/>
</g>
<g>
	<path class="st1" d="M960,453.5491638v981.8879395c-8.6953735,0.779541-18.8546753,1.3479004-29.9892578,1.3479004
		c-40.3594971,0-97.9857178-7.5257568-143.3204956-43.3782959C733.8117676,1351.5882568,707,1278.6662598,707,1176.666748
		c0-80.3952637,16.815979-174.2562256,49.9810181-278.975769c26.9412231-85.0682373,64.6062622-177.1925049,111.9487305-273.8134766
		C900.7664795,558.9021606,932.7930298,500.5419617,960,453.5491638 M1000,312.2222595c0,0-333,493.3332214-333,864.444458
		c0,261.4810791,165.3381958,300.1182861,263.0107422,300.1182861C970.9614868,1476.7850342,1000,1470,1000,1470V312.2222595
		L1000,312.2222595z"/>
</g>
<g>
	<path class="st1" d="M1040,453.5266418c27.0484619,46.7218933,58.8743896,104.712616,90.5875244,169.3663635
		c47.4637451,96.7644653,85.230957,189.0299683,112.2526855,274.2340088
		C1276.1237793,1002.0750122,1293,1096.1257324,1293,1176.666748c0,101.9995117-26.8117676,174.9215088-79.6903076,216.7399902
		c-45.3347168,35.8525391-102.9609375,43.3782959-143.3204346,43.3782959c-11.1346436,0-21.2939453-0.5683594-29.9892578-1.3479004
		V453.5266418 M1000,312.2222595V1470c0,0,29.0385742,6.7850342,69.9892578,6.7850342
		c97.6724854,0,263.0107422-38.637207,263.0107422-300.1182861C1333,805.555481,1000,312.2222595,1000,312.2222595L1000,312.2222595
		z"/>
</g>
<g>
	<line class="st2" x1="1000" y1="1315" x2="833.5" y2="1171"/>
	<line class="st2" x1="982" y1="1128" x2="815.5" y2="984"/>
</g>
<g>
	<line class="st2" x1="1016.2438965" y1="1315" x2="1166.5" y2="1171"/>
	<line class="st2" x1="1032.487793" y1="1128" x2="1182.7438965" y2="984"/>
</g>
<path class="st2" d="M982,1473.163208c0,0-21.5,131.836792-65.25,131.836792s83.25,0,83.25,0"/>
<path class="st2" d="M1018,1473.163208c0,0,21.5,131.836792,65.25,131.836792s-83.25,0-83.25,0"/>
</svg>
