<?xml version="1.0" standalone="no"?>
<!DOCTYPE svg PUBLIC "-//W3C//DTD SVG 20010904//EN"
 "http://www.w3.org/TR/2001/REC-SVG-20010904/DTD/svg10.dtd">
<svg version="1.0" xmlns="http://www.w3.org/2000/svg"
 width="700.000000pt" height="700.000000pt" viewBox="0 0 700.000000 700.000000"
 preserveAspectRatio="xMidYMid meet">
<metadata>
Created by potrace 1.14, written by Peter Selinger 2001-2017
</metadata>
<g transform="translate(0.000000,700.000000) scale(0.100000,-0.100000)"
fill="#000000" stroke="none">
<path d="M2785 6929 c-16 -4 -73 -17 -125 -29 -123 -29 -388 -116 -515 -170
-411 -174 -798 -433 -1108 -741 -97 -96 -98 -98 -75 -111 13 -7 32 -18 43 -24
73 -44 343 -171 460 -217 115 -45 353 -127 369 -127 2 0 14 26 26 58 185 480
408 849 670 1112 90 90 210 191 273 229 20 12 37 24 37 25 0 5 -25 3 -55 -5z"/>
<path d="M4257 6866 c150 -113 341 -308 436 -446 185 -269 332 -547 427 -805
18 -49 37 -94 41 -99 9 -10 181 46 374 121 141 55 373 165 474 224 l54 31 -99
97 c-119 116 -253 231 -389 332 -108 80 -308 209 -325 209 -5 0 -10 3 -10 8 0
4 -10 12 -23 18 -12 6 -76 38 -142 71 -66 34 -138 69 -160 78 -212 90 -421
160 -617 205 -71 17 -132 30 -134 30 -3 0 39 -33 93 -74z"/>
<path d="M3280 6840 c-317 -78 -632 -353 -887 -774 -111 -182 -304 -601 -288
-625 4 -7 89 -25 97 -21 2 1 15 -3 29 -8 14 -6 43 -13 65 -16 21 -3 50 -8 64
-11 143 -30 402 -65 580 -79 108 -9 242 -17 331 -21 l96 -3 0 789 c0 434 -3
789 -6 788 -3 0 -40 -9 -81 -19z"/>
<path d="M3634 6072 l1 -787 75 1 c85 1 326 14 350 19 9 2 52 6 96 10 43 3 90
8 104 10 14 2 48 6 75 10 156 19 544 92 558 105 21 18 -171 438 -288 630 -139
230 -342 464 -510 588 -69 52 -262 153 -320 168 -16 4 -32 8 -35 9 -18 6 -59
15 -81 19 l-26 4 1 -786z"/>
<path d="M667 5557 c-268 -371 -462 -788 -566 -1216 -34 -139 -67 -315 -76
-406 -3 -33 -8 -76 -11 -95 -2 -19 -6 -74 -9 -121 l-5 -85 749 0 c412 1 753 5
757 9 5 5 9 34 10 65 2 78 14 288 19 338 2 23 7 72 10 110 6 77 14 147 20 184
3 14 7 48 11 75 3 28 7 57 9 65 2 8 8 51 15 95 7 44 13 87 15 95 2 8 13 62 25
120 12 58 23 112 25 121 2 9 22 87 44 173 23 87 41 161 41 165 0 4 -60 27
-132 51 -255 82 -536 204 -749 325 -52 30 -100 55 -105 55 -5 0 -49 -55 -97
-123z"/>
<path d="M6195 5662 c-203 -124 -501 -258 -774 -349 -91 -31 -168 -57 -170
-59 -2 -1 17 -83 42 -181 41 -160 94 -398 102 -463 2 -14 6 -39 9 -56 3 -17 8
-48 11 -70 2 -21 8 -59 12 -84 4 -25 8 -49 8 -55 1 -5 3 -23 3 -39 2 -28 3
-29 50 -23 26 4 84 13 129 21 189 35 340 43 773 42 l395 -1 45 -24 c25 -13 55
-32 66 -43 l22 -19 -8 38 c-60 310 -254 771 -458 1088 -73 113 -206 295 -217
295 -5 0 -23 -8 -40 -18z"/>
<path d="M4979 5185 c-8 -7 -275 -61 -429 -86 -137 -23 -159 -26 -240 -35 -30
-3 -68 -7 -85 -10 -16 -2 -64 -6 -105 -10 -41 -3 -86 -7 -100 -10 -13 -2 -99
-6 -190 -10 -91 -4 -172 -8 -180 -9 -13 -2 -15 -85 -17 -671 -1 -368 0 -678 2
-690 5 -21 8 -21 259 -20 l255 1 76 60 c250 197 513 344 810 455 77 29 142 54
144 56 2 2 -2 47 -9 101 -7 54 -14 107 -15 118 -3 19 -29 174 -41 240 -3 17
-14 71 -25 120 -11 50 -22 101 -25 115 -7 37 -63 245 -72 270 -4 11 -10 18
-13 15z"/>
<path d="M2005 5168 c-2 -7 -11 -40 -20 -73 -9 -33 -18 -67 -20 -75 -13 -48
-85 -372 -90 -410 -4 -25 -11 -66 -16 -93 -11 -61 -46 -340 -55 -437 -10 -123
-12 -148 -19 -301 l-6 -145 793 0 793 1 0 689 c0 609 -2 689 -15 691 -9 2 -90
6 -181 9 -91 4 -176 8 -190 11 -13 2 -62 6 -109 10 -47 3 -94 8 -105 10 -11 3
-42 7 -70 10 -112 12 -246 32 -395 61 -131 24 -137 26 -210 43 -60 14 -80 14
-85 -1z"/>
<path d="M6077 4064 c-1 -1 -50 -5 -108 -8 -58 -4 -115 -8 -126 -10 -11 -3
-44 -7 -74 -11 -141 -18 -429 -86 -524 -125 -11 -4 -54 -20 -95 -35 -514 -189
-974 -550 -1275 -1000 -60 -90 -174 -305 -217 -410 -18 -44 -84 -247 -92 -286
-23 -100 -47 -236 -53 -299 -5 -41 -8 -430 -8 -865 l0 -790 25 -48 c99 -195
369 -198 475 -6 l30 54 1 410 c2 378 6 517 19 586 26 141 108 333 191 449 71
99 766 792 823 821 34 17 65 24 119 25 63 1 82 -2 132 -28 166 -83 269 -284
216 -422 -18 -47 -25 -56 -114 -151 -31 -34 -115 -124 -187 -200 -71 -77 -155
-166 -186 -200 -73 -78 -187 -200 -228 -245 -69 -75 -168 -253 -185 -332 -3
-13 -12 -52 -20 -88 -19 -83 -15 -267 8 -328 32 -86 87 -153 155 -191 41 -23
165 -23 246 0 288 80 511 197 750 396 233 193 453 452 638 747 243 391 454
923 531 1341 19 98 28 163 45 325 14 124 11 575 -4 660 -21 122 -33 158 -71
207 -44 58 -37 57 -452 58 -211 0 -384 -1 -385 -1z"/>
<path d="M5 3286 c3 -45 7 -99 9 -121 3 -22 8 -71 12 -110 3 -38 8 -72 9 -75
2 -3 6 -26 10 -50 6 -42 23 -133 29 -155 2 -5 6 -28 10 -50 12 -59 60 -233 97
-345 72 -220 208 -508 339 -720 84 -134 231 -339 244 -340 5 0 44 20 88 45
242 140 635 307 857 365 37 10 42 14 38 33 -3 12 -25 103 -50 202 -25 99 -48
191 -51 205 -51 268 -66 354 -82 495 -3 33 -8 67 -9 75 -2 8 -6 51 -10 95 -4
44 -8 91 -10 105 -4 23 -14 207 -20 340 -1 30 -3 62 -4 71 -1 14 -73 16 -756
16 l-755 -1 5 -80z"/>
<path d="M1785 3216 c3 -83 8 -167 10 -186 2 -19 7 -66 10 -105 6 -79 14 -158
20 -195 2 -14 7 -50 10 -80 19 -172 90 -524 146 -728 26 -94 34 -112 48 -106
16 6 63 18 111 28 107 21 354 66 392 70 26 3 78 10 115 16 123 17 305 33 503
45 58 4 108 9 111 11 4 2 9 30 13 61 13 113 38 236 69 338 20 67 21 91 23 526
l1 455 -794 0 -795 0 7 -150z"/>
<path d="M3636 3361 c-7 -12 -3 -312 4 -304 3 4 52 70 108 145 56 75 107 140
112 143 6 3 10 10 10 14 0 9 -229 11 -234 2z"/>
<path d="M3218 1715 c-2 -2 -64 -6 -138 -10 -74 -4 -137 -8 -140 -10 -3 -1
-43 -6 -90 -9 -47 -4 -98 -9 -115 -12 -16 -2 -46 -6 -65 -8 -19 -2 -51 -7 -70
-10 -19 -3 -48 -7 -65 -10 -111 -15 -417 -77 -428 -86 -17 -15 141 -376 241
-552 154 -272 366 -524 561 -667 90 -67 252 -150 338 -174 l52 -15 -15 37 c-9
20 -19 50 -22 66 -3 17 -6 350 -6 742 -1 660 -2 712 -18 716 -9 3 -18 4 -20 2z"/>
<path d="M1680 1441 c-244 -82 -483 -186 -663 -289 l-79 -45 104 -101 c111
-108 246 -225 343 -297 33 -24 62 -47 65 -50 7 -9 220 -149 227 -149 3 0 17
-8 31 -19 52 -36 252 -140 378 -196 87 -39 246 -98 359 -135 83 -26 371 -100
392 -100 3 0 -40 34 -95 75 -160 119 -314 280 -467 489 -115 158 -283 476
-385 734 -29 72 -55 132 -59 132 -3 0 -71 -22 -151 -49z"/>
</g>
</svg>
